<svg width="25" height="24" viewBox="0 0 25 24" fill="none" xmlns="http://www.w3.org/2000/svg">
<path d="M17.8674 15.0943H16.7381L16.3379 14.7238C17.7387 13.1595 18.582 11.1286 18.582 8.91938C18.582 3.99314 14.4225 0 9.29102 0C4.15952 0 0 3.99314 0 8.91938C0 13.8456 4.15952 17.8388 9.29102 17.8388C11.5923 17.8388 13.7078 17.0292 15.3373 15.6844L15.7233 16.0686V17.1527L22.8702 24L25 21.9554L17.8674 15.0943ZM9.29102 15.0943C5.73185 15.0943 2.85878 12.3362 2.85878 8.91938C2.85878 5.50257 5.73185 2.74443 9.29102 2.74443C12.8502 2.74443 15.7233 5.50257 15.7233 8.91938C15.7233 12.3362 12.8502 15.0943 9.29102 15.0943Z" fill="white" fill-opacity="0.5"/>
</svg>
